<svg width="1200" height="900" viewBox="0 0 1200 900" fill="none" xmlns="http://www.w3.org/2000/svg">
  <rect width="1200" height="900" rx="48" fill="#17100A"/>
  <rect x="40" y="40" width="1120" height="820" rx="40" fill="url(#panel)"/>
  <circle cx="982" cy="180" r="170" fill="#F5AA18" fill-opacity="0.16"/>
  <circle cx="240" cy="740" r="210" fill="#F5AA18" fill-opacity="0.1"/>
  <path d="M130 252C254 152 432 116 580 168C672 201 744 266 835 302C942 345 1057 353 1125 330V820H75V354C91 320 107 284 130 252Z" fill="url(#floor)"/>
  <g opacity="0.3">
    <circle cx="228" cy="234" r="12" fill="#FFE2A3"/>
    <circle cx="266" cy="186" r="8" fill="#FFE2A3"/>
    <circle cx="312" cy="228" r="10" fill="#FFE2A3"/>
    <circle cx="900" cy="244" r="10" fill="#FFE2A3"/>
    <circle cx="956" cy="214" r="7" fill="#FFE2A3"/>
    <circle cx="1000" cy="258" r="12" fill="#FFE2A3"/>
  </g>
  <defs>
    <linearGradient id="panel" x1="600" y1="40" x2="600" y2="860" gradientUnits="userSpaceOnUse">
      <stop stop-color="#2A1A0C"/>
      <stop offset="1" stop-color="#120B07"/>
    </linearGradient>
    <linearGradient id="floor" x1="600" y1="168" x2="600" y2="820" gradientUnits="userSpaceOnUse">
      <stop stop-color="#4B2E13"/>
      <stop offset="1" stop-color="#221409"/>
    </linearGradient>
  </defs>
</svg>
