<svg width="120" height="160" viewBox="0 0 120 160" fill="none" xmlns="http://www.w3.org/2000/svg">
  <ellipse cx="60" cy="148" rx="34" ry="8" fill="#000000" fill-opacity="0.15"/>
  <rect x="48" y="10" width="24" height="18" rx="5" fill="#A07B40"/>
  <rect x="40" y="24" width="40" height="20" rx="8" fill="#8A6330"/>
  <path d="M32 42C32 35.3726 37.3726 30 44 30H76C82.6274 30 88 35.3726 88 42V116C88 126.493 79.4934 135 69 135H51C40.5066 135 32 126.493 32 116V42Z" fill="#84643A"/>
  <path d="M38 46C38 41.5817 41.5817 38 46 38H74C78.4183 38 82 41.5817 82 46V108C82 118.493 73.4934 127 63 127H57C46.5066 127 38 118.493 38 108V46Z" fill="#D9D2C1"/>
  <rect x="44" y="64" width="32" height="26" rx="7" fill="#F5F0E2" fill-opacity="0.7"/>
  <path d="M47 84L73 58" stroke="#A07B40" stroke-width="6" stroke-linecap="round"/>
  <path d="M47 58L73 84" stroke="#A07B40" stroke-width="6" stroke-linecap="round"/>
  <path d="M43 36H54L49 21H43V36Z" fill="#FFFFFF" fill-opacity="0.25"/>
</svg>
