<svg width="120" height="160" viewBox="0 0 120 160" fill="none" xmlns="http://www.w3.org/2000/svg">
  <ellipse cx="60" cy="148" rx="34" ry="8" fill="#000000" fill-opacity="0.15"/>
  <rect x="48" y="10" width="24" height="18" rx="5" fill="#F5AA18"/>
  <rect x="40" y="24" width="40" height="20" rx="8" fill="#E48A0D"/>
  <path d="M32 42C32 35.3726 37.3726 30 44 30H76C82.6274 30 88 35.3726 88 42V116C88 126.493 79.4934 135 69 135H51C40.5066 135 32 126.493 32 116V42Z" fill="#F0A61D"/>
  <path d="M38 46C38 41.5817 41.5817 38 46 38H74C78.4183 38 82 41.5817 82 46V108C82 118.493 73.4934 127 63 127H57C46.5066 127 38 118.493 38 108V46Z" fill="#FFD05A"/>
  <rect x="44" y="64" width="32" height="26" rx="7" fill="#FFF4D6" fill-opacity="0.72"/>
  <rect x="49" y="70" width="22" height="5" rx="2.5" fill="#D28B10" fill-opacity="0.5"/>
  <rect x="52" y="79" width="16" height="3" rx="1.5" fill="#D28B10" fill-opacity="0.3"/>
  <path d="M43 36H54L49 21H43V36Z" fill="#FFF2C5" fill-opacity="0.4"/>
</svg>
